<svg width="24" height="24" viewBox="0 0 24 24" fill="none" xmlns="http://www.w3.org/2000/svg">
<path d="M6.47005 11.5083L4.74194 12.4764L2 7.56528L8.08295 4H10.1567V4.94444C10.1567 5.46389 10.3372 5.90856 10.6982 6.27847C11.0591 6.64838 11.4931 6.83333 12 6.83333C12.5069 6.83333 12.9409 6.64838 13.3018 6.27847C13.6628 5.90856 13.8433 5.46389 13.8433 4.94444V4H15.9171L22 7.56528L19.2811 12.4292L17.53 11.5319V20H12H6.47005V11.5083ZM8.31336 8.34444V18.1111H12H15.6866V8.34444L18.5438 9.95L19.5115 8.29722L15.5484 5.93611C15.318 6.73889 14.884 7.40394 14.2465 7.93125C13.6091 8.45856 12.8602 8.72222 12 8.72222C11.1398 8.72222 10.3909 8.45856 9.75346 7.93125C9.11598 7.40394 8.68203 6.73889 8.45161 5.93611L4.48848 8.29722L5.45622 9.95L8.31336 8.34444Z" fill="currentColor"/>
</svg>
